<?xml version="1.0" encoding="iso-8859-1"?>
<!-- Uploaded to: SVG Repo, www.svgrepo.com, Generator: SVG Repo Mixer Tools -->
<svg height="800px" width="800px" version="1.1" id="Layer_1" xmlns="http://www.w3.org/2000/svg" xmlns:xlink="http://www.w3.org/1999/xlink" 
	 viewBox="0 0 512 512" xml:space="preserve">
<path style="fill:#FFCD54;" d="M0,256.006C0,397.402,114.606,512.004,255.996,512C397.394,512.004,512,397.402,512,256.006
	C512.009,114.61,397.394,0,255.996,0C114.606,0,0,114.614,0,256.006z"/>
<g>
	<path style="fill:#F4BA41;" d="M486.226,368.031L331.367,213.172l-29.573-29.571c-2.771-2.771-7.261-2.771-10.031,0l-31.516,31.515
		c-0.023-0.022-0.046-0.046-0.07-0.067c-0.352-0.609-39.83-39.769-39.83-39.769c-0.226-0.293-0.509-0.511-0.778-0.754
		l-44.532-44.574c-0.336-0.618-0.938-0.94-1.433-1.391l-0.051-0.093c-2.48-4.559-9.961-4.559-12.442,0l-16.562,30.272
		l-30.271,16.562c-2.278,1.239-3.693,3.63-3.693,6.22c0,1.996,1.026,3.701,2.454,5.026c0.352,0.608,50.524,50.553,50.556,50.604
		c0.052,0.033,0.078,0.096,0.133,0.128c0.154,0.234,0.422,0.37,0.604,0.585c0.226,0.194,0.372,0.477,0.62,0.641
		c0.031,0.054,0.095,0.081,0.128,0.133c0.052,0.033,0.078,0.094,0.13,0.125c0.166,0.25,0.45,0.397,0.649,0.625
		c0.211,0.179,35.019,35.026,35.049,35.068L91.385,383.979c-2.771,2.771-2.771,7.261,0,10.031l29.571,29.573l83.034,83.034
		l0.114,0.114c16.757,3.451,34.112,5.268,51.892,5.268C357.211,512.002,444.677,453.268,486.226,368.031z"/>
	<path style="fill:#F4BA41;" d="M505.002,196.607c-0.235-0.203-0.496-0.356-0.746-0.539c-0.211-0.287-93.782-94.019-94.039-94.276
		c-2.166-2.175-5.5-2.681-8.236-1.296l-31.945,16.311c0,0-0.206-0.207-0.21-0.208c0,0-18.279-18.283-25.202-25.205
		c-2.161-2.161-5.458-2.715-8.188-1.335c-2.737,1.357-4.289,4.323-3.859,7.343l5.147,36.223l-32.683,16.934
		c-2.722,1.406-4.234,4.414-3.741,7.44c0.305,1.87,1.386,3.422,2.844,4.499c0.42,0.569,48.359,48.509,48.931,48.931
		c0.42,0.567,138.806,138.954,139.376,139.375c0.273,0.371,0.627,0.659,0.963,0.966C505.362,322.179,512,289.876,512,256.005
		C512.001,235.548,509.534,215.677,505.002,196.607z"/>
</g>
<g>
	<path style="fill:#F4F6F9;" d="M328.401,210.207L301.794,183.6c-2.771-2.771-7.26-2.771-10.031,0L91.385,383.98
		c-2.771,2.771-2.771,7.26,0,10.031l26.607,26.607c1.386,1.386,3.2,2.078,5.015,2.078c1.814,0,3.63-0.692,5.015-2.078l200.38-200.38
		C331.172,217.467,331.172,212.978,328.401,210.207z M123.006,405.572l-16.576-16.576l157.546-157.546l16.576,16.576
		L123.006,405.572z M290.582,237.996l-16.576-16.576l22.772-22.772l16.576,16.576L290.582,237.996z"/>
	<path style="fill:#F4F6F9;" d="M420.622,167.551l-25.394-25.45l16.306-32.073c1.392-2.736,0.859-6.061-1.316-8.237
		c-2.169-2.175-5.5-2.681-8.237-1.295l-31.975,16.327l-25.381-25.429c-2.161-2.161-5.458-2.716-8.188-1.337
		c-2.736,1.358-4.288,4.322-3.858,7.343l5.147,36.222l-32.682,16.937c-2.722,1.406-4.233,4.413-3.741,7.44
		c0.492,3.02,2.875,5.389,5.909,5.868l35.536,5.563l5.757,35.405c0.492,3.027,2.875,5.396,5.902,5.874
		c0.367,0.055,0.734,0.083,1.102,0.083c2.633,0,5.085-1.461,6.31-3.858l16.639-32.467l36.145,5.119
		c3.097,0.436,5.978-1.13,7.343-3.852C423.309,173.002,422.775,169.705,420.622,167.551z M375.443,159.709
		c-3.11-0.458-5.936,1.102-7.308,3.789l-9.095,17.741l-3.11-19.161c-0.492-3.027-2.875-5.396-5.908-5.874l-19.236-3.006
		l17.934-9.296c2.674-1.386,4.183-4.308,3.761-7.294l-2.861-20.13l13.993,14.02c2.182,2.196,5.514,2.708,8.251,1.309l17.131-8.749
		l-8.742,17.2c-1.392,2.736-0.866,6.054,1.302,8.223l14.055,14.083L375.443,159.709z"/>
	<path style="fill:#F4F6F9;" d="M340.974,352.635l-16.514-9.04l-9.04-16.514c-2.48-4.558-9.962-4.558-12.441,0l-9.04,16.514
		l-16.514,9.04c-2.279,1.239-3.692,3.63-3.692,6.221c0,2.591,1.413,4.98,3.692,6.221l16.514,9.04l9.04,16.514
		c1.239,2.279,3.63,3.692,6.221,3.692s4.98-1.413,6.221-3.692l9.04-16.514l16.514-9.04c2.279-1.239,3.692-3.63,3.692-6.221
		C344.666,356.265,343.253,353.875,340.974,352.635z M315.828,362.666c-1.191,0.651-2.169,1.628-2.819,2.819l-3.81,6.962
		l-3.81-6.962c-0.651-1.191-1.628-2.169-2.819-2.819l-6.962-3.81l6.962-3.81c1.191-0.651,2.169-1.628,2.819-2.819l3.81-6.962
		l3.81,6.962c0.651,1.191,1.628,2.169,2.819,2.819l6.962,3.81L315.828,362.666z"/>
	<path style="fill:#F4F6F9;" d="M114.278,187.743l30.271,16.562l16.562,30.271c1.239,2.279,3.63,3.692,6.221,3.692
		c2.591,0,4.98-1.413,6.221-3.692l16.562-30.271l30.271-16.562c2.279-1.239,3.692-3.63,3.692-6.221c0-2.591-1.413-4.98-3.692-6.221
		l-30.271-16.562l-16.562-30.271c-2.48-4.558-9.962-4.558-12.441,0l-16.562,30.271l-30.271,16.562
		c-2.279,1.239-3.692,3.63-3.692,6.221C110.586,184.113,111.999,186.503,114.278,187.743z M153.181,170.19
		c1.191-0.651,2.169-1.628,2.819-2.819l11.332-20.719l11.332,20.719c0.651,1.191,1.628,2.169,2.819,2.819l20.719,11.332
		l-20.719,11.332c-1.191,0.651-2.169,1.628-2.819,2.819l-11.332,20.719L156,195.674c-0.651-1.191-1.628-2.169-2.819-2.819
		l-20.719-11.332L153.181,170.19z"/>
</g>
</svg>